<svg viewBox="0 0 49 49" xmlns="http://www.w3.org/2000/svg" xml:space="preserve" style="fill-rule:evenodd;clip-rule:evenodd;stroke-linejoin:round;stroke-miterlimit:2"><path style="fill:none" d="M0 0h48.166v48.24H0z"/><clipPath id="a"><path d="M0 0h48.166v48.24H0z"/></clipPath><g clip-path="url(#a)"><path d="M48.24 7.059A7.062 7.062 0 0 0 41.181 0H7.059A7.062 7.062 0 0 0 0 7.059v34.122a7.062 7.062 0 0 0 7.059 7.059h34.122a7.062 7.062 0 0 0 7.059-7.059V7.059z"/><path d="M28.814 19.995 37.63 0H7.059A7.062 7.062 0 0 0 0 7.059v.232l28.814 12.704z" style="fill:#ffe941"/><path d="M12.976 20.328 0 14.606v26.575a7.03 7.03 0 0 0 1.737 4.636l11.239-25.489z" style="fill:#05dd51"/><path d="m44.961 1.097-9.697 21.991L48.24 28.81V7.059a7.056 7.056 0 0 0-3.279-5.962z" style="fill:#3dc1ff"/><path d="M48.24 36.145 19.753 23.584 8.882 48.24h32.299a7.062 7.062 0 0 0 7.059-7.059v-5.036z" style="fill:#f065d3"/></g></svg>